<svg width="151" height="31" viewBox="0 0 151 31" fill="none" xmlns="http://www.w3.org/2000/svg">
<path d="M0 15.5912C0 7.20896 6.79514 0.413818 15.1774 0.413818H135.753C144.135 0.413818 150.93 7.20896 150.93 15.5912C150.93 23.9734 144.135 30.7686 135.753 30.7686H0V15.5912Z" fill="#6300A1"/>
<path d="M0 15.5912C0 7.20896 6.79514 0.413818 15.1774 0.413818C23.5596 0.413818 30.3547 7.20896 30.3547 15.5912C30.3547 23.9734 23.5596 30.7686 15.1774 30.7686H0V15.5912Z" fill="#FF680A"/>
<path fill-rule="evenodd" clip-rule="evenodd" d="M21.6226 20.0092C22.2983 20.0092 22.818 20.529 22.87 21.2047C22.87 21.2566 22.87 21.2566 22.87 21.3086V24.1154H20.4791V22.1922H8.99208C8.31638 22.1922 7.74463 21.6205 7.74463 20.9448V10.2894H10.2395V20.0092H18.0881V10.2894H20.583V20.0092H21.6226Z" fill="#FEFEFE"/>
<path fill-rule="evenodd" clip-rule="evenodd" d="M70.1172 9.66575L64.3478 22.1923H67.1545L68.5579 19.1256H74.4314L75.8867 22.1923H78.6935L72.8201 9.61378C72.3523 8.62621 70.585 8.67819 70.1172 9.66575ZM132.854 16.3188V22.1923H130.359V16.3708L125.109 9.19796H128.02L131.606 14.1358L135.193 9.19796H138.052L132.854 16.3188ZM53.6404 17.5143C54.0563 18.6058 54.8879 19.4895 55.9274 19.9573C56.967 20.3731 58.2144 20.3731 59.254 19.9573C60.1376 19.5934 60.8653 18.8657 61.3331 18.0341L63.3082 19.6454C63.0483 20.0092 62.7884 20.3211 62.4766 20.633C61.8529 21.3087 61.0732 21.7765 60.2935 22.1403C59.4619 22.4522 58.5783 22.6601 57.5907 22.6601C56.6031 22.6601 55.7195 22.5041 54.9399 22.1403C53.2766 21.4646 51.9252 20.1132 51.3015 18.4499C50.6777 16.7866 50.6777 14.7075 51.3015 13.0963C51.9252 11.485 53.2766 10.0816 54.9399 9.40587C56.5512 8.73016 58.6303 8.73016 60.2935 9.40587C61.1252 9.76971 61.8529 10.2375 62.4766 10.9132L62.5286 10.9652L60.6054 12.5245C60.1896 12.1087 59.7738 11.7968 59.254 11.5889C58.2144 11.1211 56.915 11.1211 55.9274 11.5889C54.8879 12.0567 54.0043 12.9403 53.6404 13.9799C53.2246 15.0194 53.2246 16.4228 53.6404 17.5143ZM96.2098 9.14598H107.125V11.329H97.4573V14.4996H105.722V16.6827H97.4573V20.0612C100.68 20.0612 103.902 20.0612 107.125 20.0612V22.2443H96.2098C94.6505 22.2443 94.9624 20.4251 94.9624 19.2296V10.3934C94.9624 9.71773 95.4822 9.14598 96.2098 9.14598ZM93.0912 15.6951C93.0912 19.2816 90.1805 22.1923 86.594 22.1923H80.4607V9.14598H86.594C90.1805 9.14598 93.0912 12.1087 93.0912 15.6951ZM86.594 20.0092C88.985 20.0092 90.9082 18.0861 90.9082 15.6951C90.9082 13.3042 88.985 11.381 86.594 11.381H83.0076C83.0076 19.4375 83.0076 11.5369 83.0076 20.0092H86.594ZM112.427 13.4601V22.1923H109.932V10.3934C109.932 9.04203 112.011 8.4183 113.05 10.1335L114.298 12.0567L116.637 15.7991L118.976 12.0047C119.6 10.9652 120.379 9.45784 121.315 9.14598C122.198 8.88609 123.342 9.30191 123.342 10.3415V22.1403H120.847V13.3042L117.209 18.9177H116.117L112.479 13.3042V13.4601H112.427ZM50.6777 22.1923L44.8043 9.61378C44.3365 8.57423 42.5173 8.62621 42.1015 9.66575L36.28 22.1923H39.0868L40.4902 19.1256H46.3636L47.819 22.1923H50.6777ZM45.428 16.8386L43.4529 12.5765L41.4778 16.8386H45.428ZM73.4958 16.8386L71.5206 12.5765L69.5455 16.8386H73.4958Z" fill="#FEFEFE"/>
</svg>
