<svg width="48" height="48" viewBox="0 0 48 48" fill="none" xmlns="http://www.w3.org/2000/svg">
<path d="M0 24C0 10.7452 10.7452 0 24 0C37.2548 0 48 10.7452 48 24C48 37.2548 37.2548 48 24 48H0V24Z" fill="#FF680A"/>
<path fill-rule="evenodd" clip-rule="evenodd" d="M33.0115 34.1681H15V19.5773H33.0115V34.1681ZM17.444 26.1851H20.5482C20.7104 26.1851 20.8378 26.0569 20.8378 25.8938V22.7705C20.8378 22.6074 20.7104 22.4792 20.5482 22.4792H17.444C17.2818 22.4792 17.1544 22.6074 17.1544 22.7705V25.8938C17.166 26.0453 17.2934 26.1851 17.444 26.1851ZM22.4478 26.1851H25.5521C25.7142 26.1851 25.8416 26.0569 25.8416 25.8938V22.7705C25.8416 22.6074 25.7142 22.4792 25.5521 22.4792H22.4478C22.2857 22.4792 22.1582 22.6074 22.1582 22.7705V25.8938C22.1698 26.0453 22.2972 26.1851 22.4478 26.1851ZM27.4517 26.1851H30.5559C30.7181 26.1851 30.8455 26.0569 30.8455 25.8938V22.7705C30.8455 22.6074 30.7181 22.4792 30.5559 22.4792H27.4517C27.2895 22.4792 27.1621 22.6074 27.1621 22.7705V25.8938C27.1621 26.0453 27.2895 26.1851 27.4517 26.1851ZM17.444 31.208H20.5482C20.7104 31.208 20.8378 31.0798 20.8378 30.9166V27.7934C20.8378 27.6302 20.7104 27.502 20.5482 27.502H17.444C17.2818 27.502 17.1544 27.6302 17.1544 27.7934V30.9283C17.166 31.0798 17.2934 31.208 17.444 31.208ZM22.4478 31.208H25.5521C25.7142 31.208 25.8416 31.0798 25.8416 30.9166V27.7934C25.8416 27.6302 25.7142 27.502 25.5521 27.502H22.4478C22.2857 27.502 22.1582 27.6302 22.1582 27.7934V30.9283C22.1698 31.0798 22.2972 31.208 22.4478 31.208ZM27.4517 31.208H30.5559C30.7181 31.208 30.8455 31.0798 30.8455 30.9166V27.7934C30.8455 27.6302 30.7181 27.502 30.5559 27.502H27.4517C27.2895 27.502 27.1621 27.6302 27.1621 27.7934V30.9283C27.1621 31.0798 27.2895 31.208 27.4517 31.208ZM34.2277 14.1466H32.2586V12.7947C32.2586 11.8041 31.4594 11 30.4748 11H30.4053C29.4208 11 28.6215 11.8041 28.6215 12.7947V14.1466H19.4015V12.7947C19.4015 11.8041 18.5907 11 17.6061 11H17.5367C16.5521 11 15.7529 11.8041 15.7529 12.7947V14.1466H13.7838C12.7992 14.1466 12 14.9507 12 15.9413V35.2053C12 36.1959 12.7992 37 13.7838 37H34.2161C35.2007 37 35.9999 36.1959 35.9999 35.2053V15.9413C36.0115 14.9507 35.2122 14.1466 34.2277 14.1466Z" fill="white"/>
</svg>
