<svg width="48" height="48" viewBox="0 0 48 48" fill="none" xmlns="http://www.w3.org/2000/svg">
<path d="M0 24C0 10.7452 10.7452 0 24 0C37.2548 0 48 10.7452 48 24C48 37.2548 37.2548 48 24 48H0V24Z" fill="#FF680A"/>
<path d="M24 10C17.9278 10 13 14.9194 13 20.9812C13 26.25 21.4688 36.922 24 40C26.5312 36.922 35 26.25 35 20.9812C35 14.9194 30.0588 10 24 10ZM24 26.7473C20.8091 26.7473 18.224 24.1532 18.224 20.9812C18.224 17.7957 20.8091 15.2151 24 15.2151C27.1909 15.2151 29.776 17.8091 29.776 20.9812C29.776 24.1667 27.1909 26.7473 24 26.7473Z" fill="white"/>
</svg>
